# xmcd CD database file generated by Grip 3.2.0
# 
# Track frame offsets:
#       150
#       16348
#       30332
#       46019
#       64076
#       81438
#       99860
#       117798
#       136343
#       153350
# 
# Disc length: 2352 seconds
# 
# Revision: 2
# Processed by: cddbd v1.5.2PL0 Copyright (c) Steve Scherf et al.
# Submitted via: Grip 3.2.0
# 
DISCID=6d092e0a
DTITLE=Amy MacDonald - This Is The Life
DYEAR=1900
DGENRE=Country
TTITLE0=Amy MacDonald - Mr. Rock and Roll
TTITLE1=Amy MacDonald - This Is The Life
TTITLE2=Amy MacDonald - Poison Prince
TTITLE3=Amy Macdonald - Youth Of Today
TTITLE4=Amy MacDonald - Run
TTITLE5=Amy MacDonald - Let's Start A Band
TTITLE6=Amy MacDonald - Barrowland Ballroom
TTITLE7=Amy MacDonald - L.A.
TTITLE8=Amy MacDonald - A Wish For Something More
TTITLE9=Amy MacDonald - Footballer's Wife
EXTD=
EXTT0=
EXTT1=
EXTT2=
EXTT3=
EXTT4=
EXTT5=
EXTT6=
EXTT7=
EXTT8=
EXTT9=
PLAYORDER=
